<mxfile modified="2024-04-17T08:47:30.883Z" host="app.diagrams.net" agent="Mozilla/5.0 (Windows NT 10.0; Win64; x64) AppleWebKit/537.36 (KHTML, like Gecko) Chrome/123.0.0.0 Safari/537.36" etag="KHFsm0snYPvWVLiDnPLE" version="24.2.5" type="github">
  <diagram id="Ht1M8jgEwFfnCIfOTk4-" name="Page-1">
    <mxGraphModel dx="1434" dy="738" grid="1" gridSize="10" guides="1" tooltips="1" connect="1" arrows="1" fold="1" page="1" pageScale="1" pageWidth="1169" pageHeight="827" math="0" shadow="0">
      <root>
        <mxCell id="0" />
        <mxCell id="1" parent="0" />
        <mxCell id="4d0tAuQHzwckKJn9EPr0-5" value="VPC" style="points=[[0,0],[0.25,0],[0.5,0],[0.75,0],[1,0],[1,0.25],[1,0.5],[1,0.75],[1,1],[0.75,1],[0.5,1],[0.25,1],[0,1],[0,0.75],[0,0.5],[0,0.25]];outlineConnect=0;gradientColor=none;html=1;whiteSpace=wrap;fontSize=12;fontStyle=0;container=1;pointerEvents=0;collapsible=0;recursiveResize=0;shape=mxgraph.aws4.group;grIcon=mxgraph.aws4.group_vpc2;strokeColor=#8C4FFF;fillColor=none;verticalAlign=top;align=left;spacingLeft=30;fontColor=#AAB7B8;dashed=0;" vertex="1" parent="1">
          <mxGeometry x="420" y="50" width="610" height="620" as="geometry" />
        </mxCell>
        <mxCell id="4d0tAuQHzwckKJn9EPr0-8" value="Availability Zone" style="fillColor=none;strokeColor=#147EBA;dashed=1;verticalAlign=top;fontStyle=0;fontColor=#147EBA;whiteSpace=wrap;html=1;" vertex="1" parent="4d0tAuQHzwckKJn9EPr0-5">
          <mxGeometry x="130" y="20" width="430" height="580" as="geometry" />
        </mxCell>
        <mxCell id="4d0tAuQHzwckKJn9EPr0-2" value="" style="sketch=0;points=[[0,0,0],[0.25,0,0],[0.5,0,0],[0.75,0,0],[1,0,0],[0,1,0],[0.25,1,0],[0.5,1,0],[0.75,1,0],[1,1,0],[0,0.25,0],[0,0.5,0],[0,0.75,0],[1,0.25,0],[1,0.5,0],[1,0.75,0]];outlineConnect=0;fontColor=#232F3E;fillColor=#ED7100;strokeColor=#ffffff;dashed=0;verticalLabelPosition=bottom;verticalAlign=top;align=center;html=1;fontSize=12;fontStyle=0;aspect=fixed;shape=mxgraph.aws4.resourceIcon;resIcon=mxgraph.aws4.ec2;" vertex="1" parent="4d0tAuQHzwckKJn9EPr0-5">
          <mxGeometry x="292" y="271.5" width="78" height="78" as="geometry" />
        </mxCell>
        <mxCell id="4d0tAuQHzwckKJn9EPr0-6" value="Private subnet" style="points=[[0,0],[0.25,0],[0.5,0],[0.75,0],[1,0],[1,0.25],[1,0.5],[1,0.75],[1,1],[0.75,1],[0.5,1],[0.25,1],[0,1],[0,0.75],[0,0.5],[0,0.25]];outlineConnect=0;gradientColor=none;html=1;whiteSpace=wrap;fontSize=12;fontStyle=0;container=1;pointerEvents=0;collapsible=0;recursiveResize=0;shape=mxgraph.aws4.group;grIcon=mxgraph.aws4.group_security_group;grStroke=0;strokeColor=#00A4A6;fillColor=#E6F6F7;verticalAlign=top;align=left;spacingLeft=30;fontColor=#147EBA;dashed=0;" vertex="1" parent="4d0tAuQHzwckKJn9EPr0-5">
          <mxGeometry x="200" y="391" width="260" height="180" as="geometry" />
        </mxCell>
        <mxCell id="4d0tAuQHzwckKJn9EPr0-4" value="" style="sketch=0;pointerEvents=1;shadow=0;dashed=0;html=1;strokeColor=none;fillColor=#505050;labelPosition=center;verticalLabelPosition=bottom;verticalAlign=top;outlineConnect=0;align=center;shape=mxgraph.office.devices.nic;" vertex="1" parent="4d0tAuQHzwckKJn9EPr0-5">
          <mxGeometry x="302.5" y="454.5" width="57" height="38" as="geometry" />
        </mxCell>
        <mxCell id="4d0tAuQHzwckKJn9EPr0-7" value="Public subnet" style="points=[[0,0],[0.25,0],[0.5,0],[0.75,0],[1,0],[1,0.25],[1,0.5],[1,0.75],[1,1],[0.75,1],[0.5,1],[0.25,1],[0,1],[0,0.75],[0,0.5],[0,0.25]];outlineConnect=0;gradientColor=none;html=1;whiteSpace=wrap;fontSize=12;fontStyle=0;container=1;pointerEvents=0;collapsible=0;recursiveResize=0;shape=mxgraph.aws4.group;grIcon=mxgraph.aws4.group_security_group;grStroke=0;strokeColor=#7AA116;fillColor=#F2F6E8;verticalAlign=top;align=left;spacingLeft=30;fontColor=#248814;dashed=0;" vertex="1" parent="4d0tAuQHzwckKJn9EPr0-5">
          <mxGeometry x="200" y="58" width="260" height="170" as="geometry" />
        </mxCell>
        <mxCell id="4d0tAuQHzwckKJn9EPr0-3" value="" style="sketch=0;pointerEvents=1;shadow=0;dashed=0;html=1;strokeColor=none;fillColor=#505050;labelPosition=center;verticalLabelPosition=bottom;verticalAlign=top;outlineConnect=0;align=center;shape=mxgraph.office.devices.nic;" vertex="1" parent="4d0tAuQHzwckKJn9EPr0-5">
          <mxGeometry x="302.5" y="131.5" width="57" height="38" as="geometry" />
        </mxCell>
        <mxCell id="4d0tAuQHzwckKJn9EPr0-22" value="" style="edgeStyle=orthogonalEdgeStyle;rounded=0;orthogonalLoop=1;jettySize=auto;html=1;" edge="1" parent="4d0tAuQHzwckKJn9EPr0-5" source="4d0tAuQHzwckKJn9EPr0-2" target="4d0tAuQHzwckKJn9EPr0-3">
          <mxGeometry relative="1" as="geometry" />
        </mxCell>
        <mxCell id="4d0tAuQHzwckKJn9EPr0-23" value="" style="edgeStyle=orthogonalEdgeStyle;rounded=0;orthogonalLoop=1;jettySize=auto;html=1;" edge="1" parent="4d0tAuQHzwckKJn9EPr0-5" source="4d0tAuQHzwckKJn9EPr0-2" target="4d0tAuQHzwckKJn9EPr0-4">
          <mxGeometry relative="1" as="geometry" />
        </mxCell>
        <mxCell id="4d0tAuQHzwckKJn9EPr0-38" value="" style="edgeStyle=orthogonalEdgeStyle;rounded=0;orthogonalLoop=1;jettySize=auto;html=1;" edge="1" parent="4d0tAuQHzwckKJn9EPr0-5" source="4d0tAuQHzwckKJn9EPr0-26" target="4d0tAuQHzwckKJn9EPr0-3">
          <mxGeometry relative="1" as="geometry">
            <Array as="points">
              <mxPoint x="230" y="160" />
              <mxPoint x="230" y="160" />
            </Array>
          </mxGeometry>
        </mxCell>
        <mxCell id="4d0tAuQHzwckKJn9EPr0-26" value="" style="sketch=0;outlineConnect=0;fontColor=#232F3E;gradientColor=none;fillColor=#8C4FFF;strokeColor=none;dashed=0;verticalLabelPosition=bottom;verticalAlign=top;align=center;html=1;fontSize=12;fontStyle=0;aspect=fixed;pointerEvents=1;shape=mxgraph.aws4.internet_gateway;" vertex="1" parent="4d0tAuQHzwckKJn9EPr0-5">
          <mxGeometry x="-24" y="135.5" width="48.5" height="48.5" as="geometry" />
        </mxCell>
        <mxCell id="4d0tAuQHzwckKJn9EPr0-24" value="" style="sketch=0;outlineConnect=0;fontColor=#232F3E;gradientColor=none;fillColor=#8C4FFF;strokeColor=none;dashed=0;verticalLabelPosition=bottom;verticalAlign=top;align=center;html=1;fontSize=12;fontStyle=0;aspect=fixed;pointerEvents=1;shape=mxgraph.aws4.vpn_gateway;" vertex="1" parent="4d0tAuQHzwckKJn9EPr0-5">
          <mxGeometry x="-25.75" y="450.5" width="49.5" height="49.5" as="geometry" />
        </mxCell>
        <mxCell id="4d0tAuQHzwckKJn9EPr0-39" value="" style="edgeStyle=orthogonalEdgeStyle;rounded=0;orthogonalLoop=1;jettySize=auto;html=1;" edge="1" parent="4d0tAuQHzwckKJn9EPr0-5" source="4d0tAuQHzwckKJn9EPr0-37" target="4d0tAuQHzwckKJn9EPr0-4">
          <mxGeometry relative="1" as="geometry">
            <Array as="points">
              <mxPoint x="250" y="475" />
              <mxPoint x="250" y="475" />
            </Array>
          </mxGeometry>
        </mxCell>
        <mxCell id="4d0tAuQHzwckKJn9EPr0-37" value="" style="sketch=0;outlineConnect=0;fontColor=#232F3E;gradientColor=none;fillColor=#8C4FFF;strokeColor=none;dashed=0;verticalLabelPosition=bottom;verticalAlign=top;align=center;html=1;fontSize=12;fontStyle=0;aspect=fixed;pointerEvents=1;shape=mxgraph.aws4.router;" vertex="1" parent="4d0tAuQHzwckKJn9EPr0-5">
          <mxGeometry x="50" y="450.5" width="49.5" height="49.5" as="geometry" />
        </mxCell>
        <mxCell id="4d0tAuQHzwckKJn9EPr0-9" value="users" style="sketch=0;outlineConnect=0;gradientColor=none;fontColor=#545B64;strokeColor=none;fillColor=#879196;dashed=0;verticalLabelPosition=bottom;verticalAlign=top;align=center;html=1;fontSize=12;fontStyle=0;aspect=fixed;shape=mxgraph.aws4.illustration_users;pointerEvents=1" vertex="1" parent="1">
          <mxGeometry x="170" y="160" width="100" height="100" as="geometry" />
        </mxCell>
        <mxCell id="4d0tAuQHzwckKJn9EPr0-12" value="Admin" style="sketch=0;outlineConnect=0;gradientColor=none;fontColor=#545B64;strokeColor=none;fillColor=#879196;dashed=0;verticalLabelPosition=bottom;verticalAlign=top;align=center;html=1;fontSize=12;fontStyle=0;aspect=fixed;shape=mxgraph.aws4.illustration_desktop;pointerEvents=1" vertex="1" parent="1">
          <mxGeometry x="160.5" y="480" width="100" height="91" as="geometry" />
        </mxCell>
        <mxCell id="4d0tAuQHzwckKJn9EPr0-25" value="" style="edgeStyle=orthogonalEdgeStyle;rounded=0;orthogonalLoop=1;jettySize=auto;html=1;" edge="1" parent="1" source="4d0tAuQHzwckKJn9EPr0-12" target="4d0tAuQHzwckKJn9EPr0-24">
          <mxGeometry relative="1" as="geometry">
            <mxPoint x="261" y="514" as="sourcePoint" />
            <mxPoint x="723" y="514" as="targetPoint" />
            <Array as="points" />
          </mxGeometry>
        </mxCell>
        <mxCell id="4d0tAuQHzwckKJn9EPr0-27" value="" style="edgeStyle=orthogonalEdgeStyle;rounded=0;orthogonalLoop=1;jettySize=auto;html=1;" edge="1" parent="1" source="4d0tAuQHzwckKJn9EPr0-9" target="4d0tAuQHzwckKJn9EPr0-26">
          <mxGeometry relative="1" as="geometry">
            <mxPoint x="690" y="251" as="sourcePoint" />
            <mxPoint x="1143" y="251" as="targetPoint" />
            <Array as="points" />
          </mxGeometry>
        </mxCell>
      </root>
    </mxGraphModel>
  </diagram>
</mxfile>
